<svg width="47" height="47" viewBox="0 0 47 47" version="1.1" xmlns="http://www.w3.org/2000/svg" xmlns:xlink="http://www.w3.org/1999/xlink">
<title>Group</title>
<desc>Created using Figma</desc>
<g id="Canvas" transform="translate(-356 29)">
<g id="Group">
<g id="Canvas">
<g id="Group">
<g id="XMLID 16">
<g id="XMLID 17">
<g id="Vector">
<use xlink:href="#path0_fill" transform="translate(370.718 -14.2807)"/>
</g>
</g>
<g id="XMLID 18">
<g id="Vector">
<use xlink:href="#path1_fill" transform="translate(361.044 -29)"/>
</g>
</g>
<g id="XMLID 19">
<g id="Vector">
<use xlink:href="#path2_fill" transform="translate(356 -17.2183)"/>
</g>
</g>
<g id="XMLID 20">
<g id="Vector">
<use xlink:href="#path3_fill" transform="translate(379.378 -14.3277)"/>
</g>
</g>
</g>
</g>
</g>
</g>
</g>
<defs>
<path id="path0_fill" d="M -5.4968e-15 8.7835C -5.4968e-15 13.6267 3.93969 17.5667 8.78241 17.5667C 13.6248 17.5667 17.5642 13.6265 17.5642 8.7835C 17.5642 3.94026 13.6248 -9.28068e-15 8.78241 -9.28068e-15C 3.93969 -9.28068e-15 -5.4968e-15 3.94026 -5.4968e-15 8.7835Z"/>
<path id="path1_fill" d="M 38.6767 11.9083C 38.7452 11.788 38.7439 11.6402 38.6732 11.521C 36.6276 8.07534 33.7164 5.18905 30.2546 3.17431C 26.6866 1.09761 22.606 -1.90477e-19 18.4546 -1.90477e-19C 11.27 -1.90477e-19 4.57432 3.22471 0.0843402 8.84731C -0.0147419 8.97119 -0.0276854 9.14302 0.0516727 9.28035L 6.66689 20.7396C 6.73626 20.8598 6.86413 20.9322 7.00035 20.9322C 7.01762 20.9322 7.03521 20.931 7.05259 20.9287C 7.20761 20.9076 7.33443 20.7948 7.37359 20.6433C 8.67796 15.5884 13.2347 12.0581 18.4546 12.0581C 18.7785 12.0581 19.113 12.0729 19.4493 12.1016C 19.4602 12.1027 19.4713 12.1031 19.4822 12.1031L 38.3419 12.1031C 38.4804 12.1031 38.6083 12.0288 38.6767 11.9083Z"/>
<path id="path2_fill" d="M 26.9717 22.881C 26.8761 22.7573 26.7155 22.7041 26.564 22.746C 25.569 23.0231 24.538 23.1635 23.4992 23.1635C 19.0859 23.1635 15.0183 20.5747 13.1363 16.5683C 13.1317 16.5585 13.1266 16.5489 13.1212 16.5394L 3.68453 0.192644C 3.6158 0.0732047 3.48852 9.14227e-15 3.35091 9.14227e-15C 3.3503 9.14227e-15 3.34953 9.14227e-15 3.34891 9.14227e-15C 3.21054 0.000770577 3.0831 0.0755156 3.0153 0.196034C 1.04275 3.69676 0 7.68139 0 11.7192C 0 17.3837 2.04328 22.8553 5.7534 27.126C 9.42668 31.3541 14.4837 34.1367 19.9933 34.9612C 20.0124 34.9641 20.0315 34.9654 20.0505 34.9654C 20.1866 34.9654 20.3144 34.8929 20.384 34.7727L 27.0009 23.3099C 27.0792 23.1743 27.0676 23.0048 26.9717 22.881Z"/>
<path id="path3_fill" d="M 21.6459 7.90875e-15L 8.39789 7.90875e-15C 8.24134 7.90875e-15 8.10035 0.094781 8.04132 0.239649C 7.98215 0.384518 8.01653 0.550961 8.12823 0.660385C 10.3449 2.83372 11.5656 5.73447 11.5656 8.82851C 11.5656 11.1708 10.8589 13.4248 9.52186 15.3473C 9.51571 15.3562 9.50999 15.3653 9.50458 15.3747L 0.0515841 31.7497C -0.0176039 31.8696 -0.017141 32.0175 0.0526635 32.137C 0.121851 32.2552 0.248514 32.3277 0.385195 32.3277C 0.386582 32.3277 0.388123 32.3277 0.38951 32.3277C 6.61026 32.2583 12.4478 29.7831 16.8265 25.3583C 21.2088 20.9298 23.6222 15.0594 23.6222 8.82851C 23.6222 5.86686 23.0779 2.9789 22.0045 0.244582C 21.9466 0.0969392 21.8043 7.90875e-15 21.6459 7.90875e-15Z"/>
</defs>
</svg>
